<svg width="81" height="39" viewBox="0 0 81 39" fill="none" xmlns="http://www.w3.org/2000/svg">
<g clip-path="url(#clip0_1307_239)">
<path d="M0.0100098 0H80.9899V38.2644H0.0100098V0Z" fill="black"/>
<path d="M16.695 11.7214C17.4744 11.4616 18.3057 11.3231 19.1682 11.3231C22.9437 11.3231 26.0957 14.004 26.8162 17.5683L32.1678 16.4772C30.9416 10.4225 25.5866 5.86414 19.1682 5.86414C17.6961 5.86414 16.2863 6.10314 14.9631 6.5465L16.695 11.7214Z" fill="#FFCB05"/>
<path d="M10.3807 29.0612L14.0004 24.9705C12.3863 23.5399 11.3679 21.4513 11.3679 19.1236C11.3679 16.7994 12.3863 14.7107 14.0004 13.2836L10.3807 9.18945C7.63741 11.621 5.90552 15.1714 5.90552 19.1236C5.90552 23.0792 7.63741 26.6296 10.3807 29.0612Z" fill="#00A4E0"/>
<path d="M26.8162 20.6892C26.0923 24.25 22.9437 26.9275 19.1716 26.9275C18.3057 26.9275 17.4709 26.7889 16.695 26.5257L14.9631 31.7075C16.2863 32.1474 17.6995 32.3864 19.1716 32.3864C25.5831 32.3864 30.9347 27.835 32.1678 21.7872L26.8162 20.6892Z" fill="#EF4123"/>
<path d="M36.8475 25.1401C36.6709 24.8561 36.4353 24.4024 36.2898 24.0664C35.4412 22.0989 35.4031 20.0622 36.1166 18.1087C36.9029 15.9646 38.4062 14.3262 40.3494 13.488C42.7914 12.4384 45.4896 12.6428 47.8312 14.0318C49.3171 14.8839 50.3701 16.2001 51.1703 18.0636C51.2707 18.3026 51.3608 18.5555 51.4508 18.7737L36.8475 25.1401ZM41.7245 16.6504C39.9892 17.3951 39.0955 19.0231 39.2825 20.9282L46.6258 17.7657C45.3615 16.2832 43.7197 15.7914 41.7245 16.6504ZM47.5402 23.5295C47.5367 23.5295 47.5367 23.5329 47.5367 23.5329L47.3843 23.429C46.9444 24.1391 46.2621 24.7176 45.3996 25.0916C43.7578 25.8052 42.2372 25.6216 41.1426 24.6621L41.0421 24.8145C41.0421 24.8145 41.0421 24.8111 41.0387 24.8111L39.1752 27.5994C39.6393 27.9216 40.1346 28.1917 40.6542 28.41C42.7117 29.2655 44.8177 29.2239 46.8925 28.3234C48.3923 27.6722 49.57 26.6815 50.3736 25.4242L47.5402 23.5295ZM56.553 9.38684V24.8838L58.9638 25.8606L57.5956 29.0542L54.9354 27.9458C54.3396 27.686 53.9309 27.2912 53.6261 26.8443C53.3317 26.3906 53.1134 25.7636 53.1134 24.9254V9.38684H56.553ZM62.7947 20.9386C62.7947 19.6189 63.3801 18.4342 64.3015 17.6307L61.8283 14.8735C60.1519 16.356 59.0954 18.5208 59.0954 20.9316C59.0919 23.3459 60.1484 25.5142 61.8214 26.9967L64.2911 24.2396C63.3732 23.4325 62.7947 22.2548 62.7947 20.9386ZM67.1868 25.3341C66.7019 25.3341 66.2308 25.251 65.7944 25.1055L64.6132 28.6143C65.4203 28.8845 66.2828 29.0334 67.1833 29.0334C71.0974 29.0369 74.3638 26.2589 75.1223 22.57L71.4923 21.8288C71.0801 23.8343 69.3101 25.3376 67.1868 25.3341ZM67.1972 12.8437C66.3001 12.8437 65.4376 12.9892 64.6305 13.2559L65.8013 16.7682C66.2412 16.6227 66.7088 16.543 67.1937 16.543C69.3205 16.5465 71.094 18.0567 71.4958 20.0657L75.1258 19.3314C74.3811 15.6355 71.1147 12.8472 67.1972 12.8437Z" fill="white"/>
</g>
<defs>
<clipPath id="clip0_1307_239">
<rect width="81.0001" height="38.2644" rx="5" fill="white"/>
</clipPath>
</defs>
</svg>

