<svg width="100" height="44" viewBox="0 0 171 74" fill="none" xmlns="http://www.w3.org/2000/svg">
<g clip-path="url(#clip0_1316_202)">
<path d="M46.6867 0H29.0677C21.2824 0.368091 14.9188 3.50371 13.0813 9.96983C12.1232 13.3421 11.5959 17.0457 10.8467 20.5414C7.03801 38.3159 3.66078 56.5802 0.0175781 74H137.188C147.793 74 155.075 71.7591 157.042 63.342C157.956 59.4322 158.832 55.0041 159.706 50.7085C163.116 33.9598 166.528 17.2122 170.02 0H46.6867Z" fill="#822124"/>
<path d="M45.3107 26.2996C46.0475 25.792 46.9966 23.4803 45.9124 22.5179C45.569 22.2132 44.9946 22.1248 44.1934 22.2603C43.4502 22.3857 43.0227 22.6384 42.7324 23.0338C42.2658 23.6695 41.8377 25.5874 42.5605 26.2999C43.2646 26.9934 44.8418 26.6223 45.3107 26.2996V26.2996ZM34.8252 22.5179C34.2973 25.9435 33.7026 29.3024 33.1063 32.6596C29.2775 32.7 25.3683 32.8485 21.6754 32.5735C22.3729 29.289 22.8731 25.807 23.5663 22.5179H19.4408C17.9641 30.8962 16.6206 39.4084 14.9717 47.6145H19.1832C19.8436 43.4053 20.4617 39.1527 21.3317 35.1521C24.9225 35.0637 29.2261 34.9095 32.6768 35.2382C31.9653 39.3973 31.1056 43.4073 30.4422 47.6145H34.6537C36.0073 39.1123 37.4326 30.683 39.1232 22.5179H34.8252V22.5179ZM94.3863 29.7375C91.1095 28.414 88.5332 30.6506 87.3388 32.7457C87.6098 31.8136 87.7212 30.722 87.9408 29.7375H84.6747C83.8761 35.9297 82.6994 41.743 81.5808 47.6145H85.2767C85.7947 44.1295 86.0183 39.4314 87.1673 36.0975C88.0856 33.4335 90.4891 31.1639 93.9571 32.4019C94.0051 31.4191 94.2865 30.6689 94.3863 29.7375V29.7375ZM96.4486 43.4033C96.1079 42.5229 96.0201 41.0699 96.1052 39.965C96.2961 37.4818 97.2012 34.4583 98.5978 33.0894C100.525 31.2002 104.33 31.5129 107.365 32.5738C107.458 31.551 107.664 30.6386 107.794 29.6518C102.817 28.8388 98.0945 29.3448 95.5903 31.9724C93.1385 34.5447 91.532 40.4569 92.6676 44.1769C93.9971 48.5299 99.9593 48.7665 104.786 47.0992C105 46.2242 105.113 45.2488 105.302 44.3491C102.664 45.719 97.621 46.4311 96.4486 43.4033V43.4033ZM137.961 29.8233C134.695 28.1901 131.975 30.9306 130.914 32.5735C131.216 31.7305 131.233 30.6015 131.515 29.7372H128.249C127.369 35.8756 126.307 41.8332 125.07 47.6141H128.851C128.875 45.2448 129.341 43.4921 129.71 41.1687C130.501 36.207 131.661 30.7661 137.446 32.4016C137.637 31.5626 137.717 30.6109 137.961 29.8233ZM41.529 29.7375C41.4289 29.7519 41.4355 29.8734 41.4429 29.9952C40.6286 36.0852 39.5263 41.8879 38.349 47.6141H42.0446C42.9326 41.4831 43.9498 35.4818 45.2246 29.7372L41.529 29.7375V29.7375ZM74.0168 29.3938C71.3463 29.5997 69.0891 30.3679 67.4849 32.0582C65.5173 34.1309 63.9241 38.7139 64.391 42.8877C65.0571 48.8419 72.4706 48.628 78.4001 47.185C78.5013 46.1398 78.7542 45.2464 78.9157 44.2626C76.4733 45.1767 72.232 46.4525 69.7191 44.8646C67.8223 43.6649 67.8113 40.6284 68.43 37.9887C72.4152 37.8619 76.5574 37.8859 80.5483 37.9887C80.8012 36.1179 81.5257 34.0782 80.892 32.2304C80.0564 29.7909 77.0629 29.1589 74.0168 29.3938ZM77.5405 35.9257H68.8595C69.1345 33.93 70.9299 31.7365 73.7588 31.6284C76.4212 31.5266 78.3274 32.6058 77.5405 35.9257V35.9257ZM60.0076 29.7375C56.8797 28.5625 53.0676 29.9651 51.4147 31.2993C51.4207 31.3581 51.3753 31.3661 51.3266 31.3704C51.3546 31.3467 51.3853 31.323 51.4147 31.2993C51.4144 31.2944 51.4139 31.2895 51.413 31.2847C51.4407 30.711 51.6426 30.3112 51.6707 29.7375H48.4907C47.1655 38.554 45.594 47.1239 43.9357 55.6074H47.6313C48.1663 52.3036 48.5194 48.8179 49.2646 45.7236C50.1085 48.9781 55.6195 48.3563 57.9452 47.0989C62.7431 44.5039 66.444 32.155 60.0076 29.7375V29.7375ZM57.0856 44.2626C55.1083 46.3567 50.2474 46.3253 49.8659 42.8013C49.7001 41.2682 50.271 39.6606 50.554 38.0745C50.8394 36.469 51.0453 34.9285 51.3269 33.5192C53.2745 31.1412 58.9974 30.8538 59.5781 34.8084C60.0817 38.2417 58.7228 42.5283 57.0856 44.2626V44.2626ZM151.712 22.0023C151.396 24.7795 150.972 27.4502 150.424 29.9952C141.358 27.1255 135.799 33.7956 135.899 42.028C135.918 43.6202 136.192 45.199 137.188 46.3253C138.904 48.2656 143.817 48.7304 146.298 47.0986C146.778 46.7829 147.269 46.2082 147.587 45.8097C147.827 45.5097 148.206 44.7238 148.275 44.9501C148.144 45.8221 147.949 46.6303 147.932 47.6141H151.284C151.93 38.3475 153.927 30.4327 155.409 22.002H151.713V22.0023H151.712ZM143.462 45.6375C140.974 45.6909 139.737 44.1512 139.68 41.5982C139.581 37.1271 141.542 32.1597 145.525 31.7142C147.379 31.5069 148.721 31.9381 150.08 32.4019C148.832 37.4244 149.283 45.5127 143.462 45.6375V45.6375ZM111.575 29.7375C111.394 30.7587 111.114 31.6828 110.888 32.6596C113.069 32.1126 119.86 30.436 120.514 33.347C120.731 34.3142 120.357 35.3417 120.084 36.0975C113.944 35.5159 108.939 36.536 107.622 40.9104C106.74 43.8405 107.721 46.7238 109.599 47.5287C113.216 49.0785 117.616 47.3031 119.139 44.8646C118.981 45.7086 118.831 46.5619 118.881 47.6145H122.061C122.095 44.569 122.538 42.1038 123.007 39.3633C123.406 37.0296 124.157 34.7193 124.038 32.6596C123.764 27.9425 115.95 29.6111 111.575 29.7375V29.7375ZM117.592 44.1765C115.687 46.041 110.341 46.5706 110.888 42.1138C111.342 38.4122 115.372 37.6256 119.74 38.1599C119.415 40.1849 119.043 42.7559 117.592 44.1765V44.1765Z" fill="white"/>
</g>
<defs>
<clipPath id="clip0_1316_202">
<rect width="170.037" height="74" fill="white"/>
</clipPath>
</defs>
</svg>
